<svg xmlns="http://www.w3.org/2000/svg" version="1.1" xmlns:xlink="http://www.w3.org/1999/xlink" xmlns:svgjs="http://svgjs.dev/svgjs" width="1428" height="560" preserveAspectRatio="none" viewBox="0 0 1428 560"><g mask="url(&quot;#SvgjsMask1053&quot;)" fill="none"><rect width="1428" height="560" x="0" y="0" fill="rgba(31, 41, 55, 1)"></rect><path d="M499 247L498 407" stroke-width="10" stroke="url(&quot;#SvgjsLinearGradient1054&quot;)" stroke-linecap="round" class="Up"></path><path d="M129 429L128 31" stroke-width="10" stroke="url(&quot;#SvgjsLinearGradient1054&quot;)" stroke-linecap="round" class="Up"></path><path d="M728 503L727 242" stroke-width="8" stroke="url(&quot;#SvgjsLinearGradient1054&quot;)" stroke-linecap="round" class="Up"></path><path d="M1054 367L1053 134" stroke-width="8" stroke="url(&quot;#SvgjsLinearGradient1054&quot;)" stroke-linecap="round" class="Up"></path><path d="M456 185L455 -22" stroke-width="6" stroke="url(&quot;#SvgjsLinearGradient1055&quot;)" stroke-linecap="round" class="Down"></path><path d="M585 121L584 277" stroke-width="8" stroke="url(&quot;#SvgjsLinearGradient1054&quot;)" stroke-linecap="round" class="Up"></path><path d="M771 208L770 -56" stroke-width="10" stroke="url(&quot;#SvgjsLinearGradient1055&quot;)" stroke-linecap="round" class="Down"></path><path d="M1395 208L1394 -103" stroke-width="8" stroke="url(&quot;#SvgjsLinearGradient1055&quot;)" stroke-linecap="round" class="Down"></path><path d="M1090 102L1089 -267" stroke-width="10" stroke="url(&quot;#SvgjsLinearGradient1055&quot;)" stroke-linecap="round" class="Down"></path><path d="M256 28L255 319" stroke-width="6" stroke="url(&quot;#SvgjsLinearGradient1055&quot;)" stroke-linecap="round" class="Down"></path><path d="M795 333L794 -67" stroke-width="8" stroke="url(&quot;#SvgjsLinearGradient1055&quot;)" stroke-linecap="round" class="Down"></path><path d="M122 542L121 780" stroke-width="8" stroke="url(&quot;#SvgjsLinearGradient1054&quot;)" stroke-linecap="round" class="Up"></path><path d="M686 292L685 524" stroke-width="6" stroke="url(&quot;#SvgjsLinearGradient1054&quot;)" stroke-linecap="round" class="Up"></path><path d="M698 209L697 368" stroke-width="8" stroke="url(&quot;#SvgjsLinearGradient1054&quot;)" stroke-linecap="round" class="Up"></path><path d="M774 529L773 166" stroke-width="10" stroke="url(&quot;#SvgjsLinearGradient1054&quot;)" stroke-linecap="round" class="Up"></path><path d="M36 274L35 -13" stroke-width="6" stroke="url(&quot;#SvgjsLinearGradient1055&quot;)" stroke-linecap="round" class="Down"></path><path d="M722 394L721 -16" stroke-width="8" stroke="url(&quot;#SvgjsLinearGradient1055&quot;)" stroke-linecap="round" class="Down"></path><path d="M403 506L402 790" stroke-width="10" stroke="url(&quot;#SvgjsLinearGradient1054&quot;)" stroke-linecap="round" class="Up"></path><path d="M4 282L3 563" stroke-width="10" stroke="url(&quot;#SvgjsLinearGradient1055&quot;)" stroke-linecap="round" class="Down"></path><path d="M1033 485L1032 231" stroke-width="10" stroke="url(&quot;#SvgjsLinearGradient1054&quot;)" stroke-linecap="round" class="Up"></path><path d="M1305 317L1304 -96" stroke-width="6" stroke="url(&quot;#SvgjsLinearGradient1055&quot;)" stroke-linecap="round" class="Down"></path><path d="M796 362L795 757" stroke-width="6" stroke="url(&quot;#SvgjsLinearGradient1054&quot;)" stroke-linecap="round" class="Up"></path><path d="M928 325L927 -76" stroke-width="8" stroke="url(&quot;#SvgjsLinearGradient1055&quot;)" stroke-linecap="round" class="Down"></path><path d="M1051 178L1050 -70" stroke-width="6" stroke="url(&quot;#SvgjsLinearGradient1054&quot;)" stroke-linecap="round" class="Up"></path><path d="M860 452L859 699" stroke-width="10" stroke="url(&quot;#SvgjsLinearGradient1055&quot;)" stroke-linecap="round" class="Down"></path><path d="M426 351L425 54" stroke-width="6" stroke="url(&quot;#SvgjsLinearGradient1055&quot;)" stroke-linecap="round" class="Down"></path><path d="M1035 354L1034 710" stroke-width="8" stroke="url(&quot;#SvgjsLinearGradient1054&quot;)" stroke-linecap="round" class="Up"></path><path d="M638 62L637 304" stroke-width="8" stroke="url(&quot;#SvgjsLinearGradient1054&quot;)" stroke-linecap="round" class="Up"></path><path d="M754 60L753 -283" stroke-width="10" stroke="url(&quot;#SvgjsLinearGradient1055&quot;)" stroke-linecap="round" class="Down"></path><path d="M406 223L405 -170" stroke-width="6" stroke="url(&quot;#SvgjsLinearGradient1054&quot;)" stroke-linecap="round" class="Up"></path><path d="M1096 63L1095 -153" stroke-width="10" stroke="url(&quot;#SvgjsLinearGradient1054&quot;)" stroke-linecap="round" class="Up"></path><path d="M44 260L43 610" stroke-width="8" stroke="url(&quot;#SvgjsLinearGradient1054&quot;)" stroke-linecap="round" class="Up"></path><path d="M1313 447L1312 856" stroke-width="6" stroke="url(&quot;#SvgjsLinearGradient1055&quot;)" stroke-linecap="round" class="Down"></path><path d="M713 27L712 256" stroke-width="8" stroke="url(&quot;#SvgjsLinearGradient1054&quot;)" stroke-linecap="round" class="Up"></path><path d="M466 141L465 -42" stroke-width="10" stroke="url(&quot;#SvgjsLinearGradient1054&quot;)" stroke-linecap="round" class="Up"></path><path d="M802 357L801 13" stroke-width="10" stroke="url(&quot;#SvgjsLinearGradient1054&quot;)" stroke-linecap="round" class="Up"></path></g><defs><mask id="SvgjsMask1053"><rect width="1428" height="560" fill="#ffffff"></rect></mask><linearGradient x1="0%" y1="100%" x2="0%" y2="0%" id="SvgjsLinearGradient1054"><stop stop-color="rgba(255, 68, 74, 0)" offset="0"></stop><stop stop-color="rgba(255, 68, 74, 1)" offset="1"></stop></linearGradient><linearGradient x1="0%" y1="0%" x2="0%" y2="100%" id="SvgjsLinearGradient1055"><stop stop-color="rgba(255, 68, 74, 0)" offset="0"></stop><stop stop-color="rgba(255, 68, 74, 1)" offset="1"></stop></linearGradient></defs></svg>